<?xml version="1.0" encoding="UTF-8"?>
<svg width="509.17" height="556.29" data-name="Layer 1" version="1.1" viewBox="0 0 509.17 556.29" xmlns="http://www.w3.org/2000/svg">
 <path d="m81.047 380.53-72.778-33.514a11.194 11.194 0 0 1-5.4794-14.834l12.22-26.537a11.194 11.194 0 0 1 14.834-5.4794l72.778 33.514a11.194 11.194 0 0 1 5.479 14.833l-12.22 26.537a11.194 11.194 0 0 1-14.833 5.4796zm-52.04-78.548a9.1921 9.1921 0 0 0-12.18 4.4993l-12.22 26.537a9.1921 9.1921 0 0 0 4.4993 12.18l72.778 33.514a9.192 9.192 0 0 0 12.18-4.4995l12.22-26.537a9.192 9.192 0 0 0-4.4989-12.18z" fill="#3f3d56"/>
 <path d="m60.417 339.23-0.40208-0.18516a1.7707 1.7707 0 1 1 1.4813-3.2167l0.40208 0.18516a1.7707 1.7707 0 0 1-1.4813 3.2167z" fill="#ccc"/>
 <path d="m77.657 357.89-22.115-10.184a1.7707 1.7707 0 1 1 1.4813-3.2167l22.115 10.184a1.7707 1.7707 0 1 1-1.4813 3.2167z" fill="#ccc"/>
 <circle cx="39.623" cy="333.07" r="11.872" fill="#fd7b38"/>
 <path d="m486.17 289h-253a23.026 23.026 0 0 1-23-23v-243a23.026 23.026 0 0 1 23-23h253a23.026 23.026 0 0 1 23 23v243a23.026 23.026 0 0 1-23 23z" fill="#fff"/>
 <path d="m486.17 289h-253a23.026 23.026 0 0 1-23-23v-243a23.026 23.026 0 0 1 23-23h253a23.026 23.026 0 0 1 23 23v243a23.026 23.026 0 0 1-23 23zm-253-287a21.024 21.024 0 0 0-21 21v243a21.024 21.024 0 0 0 21 21h253a21.024 21.024 0 0 0 21-21v-243a21.024 21.024 0 0 0-21-21z" fill="#3f3d56"/>
 <path d="m356.39 88.54h-42.497a4.0583 4.0583 0 1 1 0-8.1165h42.497a4.0583 4.0583 0 0 1 0 8.1165z" fill="#fd7b38"/>
 <path d="m451.39 249.54h-42.497a4.0583 4.0583 0 1 1 0-8.1165h42.497a4.0583 4.0583 0 0 1 0 8.1165z" fill="#fd7b38"/>
 <path d="m451.65 105.14h-137.76a4.0582 4.0582 0 1 1 0-8.1165h137.76a4.0582 4.0582 0 0 1 0 8.1165z" fill="#e6e6e6"/>
 <circle cx="278.89" cy="91.72" r="12.252" fill="#fd7b38"/>
 <circle cx="237.89" cy="29.721" r="12.252" fill="#f2f2f2"/>
 <path d="m277.22 98.09a1.3624 1.3624 0 0 1-1.0901-0.54523l-3.3424-4.4566a1.3628 1.3628 0 1 1 2.1805-1.6353l2.1867 2.9154 5.6163-8.4243a1.3629 1.3629 0 0 1 2.2734 1.5038l-5e-3 8e-3 -6.6848 10.027a1.3636 1.3636 0 0 1-1.0961 0.60648z" fill="#fff"/>
 <g transform="translate(-31.791 -69.07)" fill="#e6e6e6">
  <path transform="translate(-272.87,-137.32)" d="m756.31 355.53h-137.76a4.0582 4.0582 0 1 1 0-8.1165h137.76a4.0582 4.0582 0 0 1 0 8.1165z"/>
  <path transform="translate(-272.87,-137.32)" d="m583.55 364.36a13.251 13.251 0 1 1 13.251-13.251 13.267 13.267 0 0 1-13.251 13.251zm0-24.503a11.251 11.251 0 1 0 11.251 11.251 11.264 11.264 0 0 0-11.251-11.251z"/>
  <path transform="translate(-272.87,-137.32)" d="m661.05 400.93h-42.497a4.0583 4.0583 0 1 1 0-8.1165h42.497a4.0583 4.0583 0 0 1 0 8.1165z"/>
  <path transform="translate(-272.87,-137.32)" d="m756.31 417.53h-137.76a4.0582 4.0582 0 1 1 0-8.1165h137.76a4.0582 4.0582 0 0 1 0 8.1165z"/>
  <path transform="translate(-272.87,-137.32)" d="m583.55 417.36a13.252 13.252 0 1 1 13.251-13.252 13.267 13.267 0 0 1-13.251 13.252zm0-24.504a11.252 11.252 0 1 0 11.251 11.252 11.265 11.265 0 0 0-11.251-11.252z"/>
 </g>
 <path d="m243.46 28.73h-9.01l3.4182-3.494a0.84513 0.84513 0 1 0-1.2083-1.1819l-4.8226 4.9295a0.84478 0.84478 0 0 0 0 1.1819l4.8226 4.9299a0.84513 0.84513 0 0 0 1.2083-1.1819l-3.4171-3.4932h9.0089a0.8452 0.8452 0 0 0 0-1.6904z" fill="#3f3d56"/>
 <polygon transform="translate(-31.791 -69.07)" points="198 574.74 183.39 574.74 183.39 612.93 193.29 612.93" fill="#a0616a"/>
 <path d="m151.25 554.18 30.447-1e-3v-0.385a11.851 11.851 0 0 0-11.851-11.851h-7.4e-4l-5.5615-4.2192-10.377 4.2199-2.6578 6e-5z" fill="#2f2e41"/>
 <polygon transform="translate(-31.791 -69.07)" points="153 574.74 138.39 574.74 138.39 612.93 148.29 612.93" fill="#a0616a"/>
 <path d="m106.25 554.18 30.447-1e-3v-0.385a11.851 11.851 0 0 0-11.851-11.851h-7.4e-4l-5.5615-4.2192-10.377 4.2199-2.6578 6e-5z" fill="#2f2e41"/>
 <path d="m175.67 298.66s16.001 19.846 12.899 24.992-8.1024 3.3634-3.1024 8.7546 7.003 5.4542 3.5015 9.4227-6.5433 90.709-6.5433 90.709l-15.958 90.26-17.563 1.5827s-3.2766-11.032-3.3566-15.307-0.08-0.55044-0.08-9.413 3.16-1.9964 0.08-10.43-6.92-33.276 0-45.354 1.4811-1.4811 1.4811-1.4811l-5.3606-81.857-10.201 84.26s0 29-5 50l-0.82677 29.583-21.551-0.82371s-5.6227-8.759-3.6227-18.759-6-15-6-20 0.42124-52.827 0.42124-52.827l4.6732-99.564s-4.0945-22.609 4.9055-31.609 71.204-2.1374 71.204-2.1374z" fill="#2f2e41"/>
 <path d="m127.99 121.67 21 1q-0.24252 9.1954 10.042 17.348l11.438 11.783 3 26-3 98 17 40c-22.844 8.9276-49.546 12.888-87 3-4.224-4.5046 1.1731-30.762 3.6283-50.367 0 0 5.3142-8.1679 0.51681-14.072-4.7974-5.9041 1.8549-42.561 1.8549-42.561l2-41c-1.1374-13.269-10.555-23.259-0.0912-31.497a60.877 60.877 0 0 0 19.611-17.635z" fill="#fd7b38"/>
 <path d="m159.03 140.02 14.268 4.2806 12.128 29.964-7.4388 93.407s-1.4911 5.6497 1.2545 4.8249 1.6264 6.2556 1.6264 6.2556l10.119 38.92-96.52-7.8682 9.6283-41.367s-7.1024 0.2292-2.1084-4.7648 3.2775-1.9642-1.5198-7.8682a10.352 10.352 0 0 1-1.3657-11.623l-2.1403-29.25-3.5285-41.165a39.555 39.555 0 0 1 14.943-34.458c14.9-8.8522 32.169-6.8523 50.653 0.71341z" fill="#3f3d56"/>
 <path d="m76.909 327.57a7.7443 7.7443 0 0 1 1.918-10.63 7.4284 7.4284 0 0 1 1.0646-0.61245l-2.6004-26.892 13.181-6.1205-0.42054 37.224a7.7228 7.7228 0 0 1-2.737 9.0224 7.3907 7.3907 0 0 1-10.292-1.8233q-0.0582-0.0832-0.11407-0.16796z" fill="#a0616a"/>
 <path d="m67.469 252.67 10 51 1.19-0.08 11.59-0.83 1.22-0.09-1-46c-2.66-2.71 1.85-11.99 7.77-23.19 2.19-4.13 4.57-8.53 6.86-12.95 0.41-0.79 0.81-1.58 1.21-2.37 2.8762-5.48 5.3754-11.15 7.48-16.97l-16.57-47.02 1.08-2.8562s-5.03 10.076-9.65 22.266c-0.35004 0.91-0.70004 1.84-1.05 2.79-8.82 23.54-20.71 58.8-20.13 76.3z" fill="#3f3d56"/>
 <path d="m277.51 102.6a7.7443 7.7443 0 0 1-9.6717 4.8097 7.4296 7.4296 0 0 1-1.127-0.48817l-20.017 18.145-12.781-6.9176 30.108-21.892a7.7228 7.7228 0 0 1 8.8714-3.1926 7.3907 7.3907 0 0 1 4.6836 9.3439q-0.032 0.0963-0.0667 0.19174z" fill="#a0616a"/>
 <path d="m125.58 190.92s29.712-7.3491 57.247-17.081c0.72721-0.25338 1.4417-0.513 2.1562-0.77272 15.663-5.6308 30.333-11.995 38.077-18.165l34.942-38.478-0.77526-0.90087-7.5973-8.7966-0.79425-0.92613-36.294 28.271c-3.0768 2.491-10.268 5.59-22.404 7.4812-0.67982 0.111-1.3974 0.52537-2.0774 0.31419-11.421-3.547-24.319 2.3124-33.947 6.6334z" fill="#3f3d56"/>
 <circle cx="139.44" cy="93.36" r="25.115" fill="#a0616a"/>
 <path d="m122.91 119.62c4.2008-1.9732 9.1073-0.77408 13.745-0.59158s10.257-1.5658 11.241-6.1014c0.72757-3.3537-1.4593-7.0295-0.0813-10.172 1.5028-3.4274 6.0133-3.9151 9.6306-4.8748a22.2 22.2 0 0 0 16.031-20.782c0.2513 1.8726-2.953 2.4877-4.0054 0.91856s-0.32758-3.741 0.83291-5.232 2.7268-2.6818 3.602-4.3563 0.705-4.1614-1.004-4.9672a13.956 13.956 0 0 1-8.8392 7.271c0.77734-2.3613-0.32176-5.016-2.0908-6.7625a20.238 20.238 0 0 0-6.3873-3.7614c-5.7893-2.5096-12.549-5.0069-18.155-2.1114a10.856 10.856 0 0 0-5.6123 7.5969c-10.371 0.8769-21.02 12.111-20.429 22.502 0.63547 11.186 1.0992 12.091 10.411 30.915" fill="#2f2e41"/>
 <path d="m12.949 556.29 6e-3 -0.2959a34.186 34.186 0 0 1 12.783-25.744 33.169 33.169 0 0 1 7.126-4.2941l0.24283-0.10814 0.0414 0.2624c0.49308 3.133 1.2739 6.3308 1.6377 7.75l2.4385-9.5151 0.27094-0.0783a6.4834 6.4834 0 0 1 6.9209 2.2112 6.5945 6.5945 0 0 1 0.6842 7.3576c-0.56839 1.059-1.1271 2.1639-1.6676 3.2324-1.8568 3.6718-3.7767 7.4685-6.5745 10.418a20.663 20.663 0 0 1-16.666 6.2171z" fill="#f2f2f2"/>
 <path d="m252.36 555.96-239.75 0.30733a1.1907 1.1907 0 0 1 0-2.3814l239.75-0.30733a1.1907 1.1907 0 1 1 0 2.3814z" fill="#cacaca"/>
 <g fill="#fd7b38">
  <path d="m277.78 103.84c-0.36313-0.0404-0.66023-0.0983-0.66023-0.12855 0-0.0303 0.17644-0.44143 0.3921-0.9137 0.32849-0.71937 0.39275-1.1729 0.39613-2.7954 3e-3 -1.2356 0.0774-2.0004 0.20657-2.1127 0.11138-0.09683 1.8022-2.5863 3.7573-5.5322 3.1708-4.7777 3.5434-5.4147 3.4502-5.8981-0.18547-0.96169-1.3051-1.4697-2.1925-0.99475-0.16792 0.08987-1.569 2.0686-3.1135 4.3973s-2.8478 4.2325-2.8962 4.2308c-0.0484-0.0017-0.58735-0.67676-1.1976-1.5001s-1.309-1.5728-1.5528-1.6655c-0.93476-0.3554-1.8978 0.30104-1.8974 1.2933l2e-4 0.56344-1.6866-0.0593c-1.3381-0.04704-1.9029 0.01372-2.7334 0.29411-0.57574 0.19437-1.119 0.30881-1.2072 0.25431-0.31688-0.19585 4e-3 -3.7612 0.46842-5.2037 1.6323-5.0706 6.2779-8.4662 11.567-8.4547 2.0347 0.0044 3.6687 0.37547 5.334 1.2112 7.9633 3.9965 9.1787 14.615 2.3246 20.311-1.0964 0.91112-3.3588 2.0401-4.7537 2.3722-1.2074 0.28747-3.0372 0.43856-4.0054 0.33074z" stroke-width=".17606"/>
  <path d="m313.3 88.456c-0.12105-0.01924-0.45776-0.11826-0.74827-0.22004-2.6837-0.94024-3.5588-4.2948-1.6688-6.3969 0.49356-0.54897 1.1206-0.95387 1.8089-1.1681 0.51987-0.1618 1.1894-0.16678 22.438-0.16678 21.693 0 21.908 0.0017 22.476 0.177 1.8106 0.55924 3.0266 2.5178 2.7182 4.3784-0.279 1.6837-1.6047 3.0511-3.2632 3.3656-0.45072 0.08548-43.228 0.11567-43.761 0.03089z" stroke-width=".088031"/>
  <path d="m333.67 80.463v-0.03906h4.6406v0.07812h-4.6406z" stroke-width=".0039062"/>
  <path d="m333.67 82.102v-1.6777h4.6406v3.3555h-4.6406z" stroke-width=".0039062"/>
  <path d="m326.78 80.465v-0.03906h6.8828v0.07812h-6.8828z" stroke-width=".0078125"/>
  <g stroke-width=".0039062">
   <path d="m329.6 81.893v-1.4648h4.0622l2e-3 0.06836 8.1e-4 -0.03613 8e-4 -0.03613h0.57422v2.9336h-4.6406z"/>
   <path d="m315.15 80.479v-0.05527h4.6406v0.08498l-0.65136 0.0024c-2.129 0.0079-2.9547 0.01245-3.7305 0.02046l-0.25879 0.0027z"/>
   <path d="m315.15 81.753v-1.2143l0.24316-0.0027c0.49895-0.0055 1.1338-0.01002 1.7736-0.01264 0.36262-0.0015 0.65793-0.0041 0.65625-0.0058-4e-3 -0.0045-2.2122 0.0081-2.5451 0.01449l-0.12793 0.0025v-0.11024h4.6406v0.08076l-0.17056 0.0026c-0.0938 0.0014-0.36495 0.0028-0.60254 0.0031-0.23759 2.94e-4 -0.5102 0.0018-0.6058 0.0034s0.17553 2e-3 0.60254 9.46e-4l0.77636-0.0019v2.4541h-4.6406z"/>
   <path d="m315.15 81.752v-1.2148l0.12402-2.78e-4c0.0682-1.53e-4 0.13018-8.92e-4 0.1377-0.0016 0.0133-0.0013 0.33775-0.0039 0.99414-0.0079 0.17832-0.0011 0.41474-0.0028 0.52539-0.0039 0.11064-0.0011 0.33388-0.0024 0.49609-0.0028 0.16221-4.86e-4 0.31602-0.0018 0.3418-0.0029 0.0554-0.0024-0.25661-0.0014-1.2188 0.0039-0.68099 0.0037-0.85908 0.0052-1.2295 0.01007l-0.1709 0.0023v-0.11h4.6406v0.0814l-0.0908 0.0015c-0.05 8.13e-4 -0.28499 0.0019-0.5223 0.0024-0.23732 5.31e-4 -0.43229 0.0018-0.43327 0.0027-9.8e-4 9.81e-4 0.23406 0.0018 0.5223 0.0018h0.52409v2.4531h-4.6406z"/>
   <path d="m316.52 81.691v-1.166l0.16114-5.63e-4c0.0886-3.1e-4 0.34306-0.0019 0.56543-0.0034 0.36534-0.0026 0.34982-0.0027-0.16114-0.0013l-0.56543 0.0016v-0.09786h4.6406v0.08178l-0.0918 0.0024 0.0918 0.00168v2.3477h-4.6406zm3.2949-1.1814c-0.015-0.0014-0.25498-0.0014-0.53321-1.66e-4l-0.50586 0.0023 0.53321 1.67e-4c0.29326 9.1e-5 0.5209-9.5e-4 0.50586-0.0023zm0.8291 6.98e-4c-0.12622-5.72e-4 -0.33277-5.72e-4 -0.45899 0s-0.0229 1e-3 0.2295 1e-3c0.25244 0 0.35571-4.67e-4 0.22949-1e-3z"/>
   <path d="m316.96 81.707v-1.2832h4.1995l-2e-3 0.08008-0.0449 0.0022c-0.0247 0.0012 0.075 0.0025 0.22168 0.0029l0.26661 7.8e-4v2.4804h-4.6406zm0.37207-1.1885c-0.0542-6.13e-4 -0.14302-6.13e-4 -0.19726 0-0.0543 6.12e-4 -0.01 0.0011 0.0986 0.0011 0.10849 0 0.15288-5.02e-4 0.0986-0.0011zm2.4492-0.0078c-0.0177-7.24e-4 -0.0467-7.24e-4 -0.0645 0-0.0177 7.23e-4 -3e-3 0.0013 0.0322 0.0013 0.0355 0 0.05-5.93e-4 0.0322-0.0013zm0.65793-2.1e-5c-0.0533-6.14e-4 -0.13945-6.14e-4 -0.1914 1e-6 -0.0519 6.15e-4 -8e-3 0.0011 0.0969 0.0011 0.10527-1e-6 0.14778-5.04e-4 0.0944-0.0011z"/>
   <path d="m316.96 81.707v-1.2832h4.1992v0.08166l-0.0244 0.0014c-0.0134 7.63e-4 0.0859 0.0017 0.2207 0.0021l0.24512 7.53e-4v2.4805h-4.6406zm0.27051-1.1881c-3e-3 -0.0011-7e-3 -0.0011-0.01 0s-4.8e-4 2e-3 5e-3 2e-3c5e-3 0 8e-3 -8.87e-4 5e-3 -2e-3zm0.0234 0c-3e-3 -0.0011-7e-3 -0.0011-0.01 0s-4.9e-4 2e-3 5e-3 2e-3c5e-3 0 8e-3 -8.87e-4 5e-3 -2e-3z"/>
  </g>
  <g>
   <path d="m276.11 92.967c-0.57012-0.76016-1.0343-1.3844-1.0316-1.3871 6e-3 -0.0057 0.1807 0.19073 0.34592 0.3883 0.15109 0.18068 0.3155 0.39118 0.5566 0.71263 0.60524 0.80694 1.091 1.4142 1.1313 1.4142 0.0276 0 0.10294-0.09709 0.373-0.48061 0.48696-0.69154 1.0704-1.553 2.3644-3.4913 0.51927-0.77782 0.96658-1.4465 0.99404-1.486 0.0275-0.0395 0.11394-0.16628 0.19218-0.28174 0.36441-0.53774 0.85212-1.2393 1.2135-1.7457 0.24017-0.33651 0.63012-0.86174 0.64799-0.87278 0.0285-0.01762 6e-3 0.02634-0.0482 0.09263-0.0326 0.04018-1.3261 1.9735-2.8745 4.2964s-2.818 4.2233-2.8216 4.2233c-4e-3 0-0.47292-0.62195-1.043-1.3821z" stroke-width=".011048"/>
   <path d="m277.11 94.281c-0.0255-0.03228-0.25571-0.33711-0.5115-0.67741-0.92361-1.2288-1.4123-1.8854-1.4071-1.8907 0.0134-0.01341 0.37679 0.43064 0.69282 0.84662 0.65633 0.86391 0.73974 0.97156 0.98218 1.2676 0.0758 0.09256 0.13997 0.16613 0.1426 0.1635 6e-3 -6e-3 -7e-3 -0.02249-0.17121-0.22297-0.19575-0.2384-0.38257-0.47953-0.78622-1.0148-0.47676-0.6322-0.67541-0.876-1.0145-1.2451-0.23208-0.25261-0.44862-0.4539-0.584-0.54287-0.0558-0.03668-0.2123-0.09009-0.33611-0.11471-0.13229-0.02631-0.40455-0.02596-0.53081 6.65e-4 -0.5481 0.1156-0.94966 0.50401-1.0796 1.0442-0.0268 0.11157-0.0285 0.13701-0.0334 0.50213l-5e-3 0.3846-0.13979-0.0067c-0.19978-0.0095-1.2894-0.0471-1.7971-0.06197-0.23699-0.0069-0.50174-0.01049-0.58833-0.0079l-0.15745 0.0047v-8.227h13.126l-1e-4 0.61043-1.1e-4 0.61043-0.04 0.04972c-0.15857 0.19715-0.59623 0.80039-1.022 1.4087-0.5958 0.85119-1.0029 1.4512-2.0425 3.0107-1.2758 1.9138-2.2859 3.398-2.5434 3.7372l-0.065 0.08563h-0.0824c-0.0952 0-0.10214 0.0097-0.0459 0.06412 0.0433 0.04193 0.0545 0.0433 0.0859 0.01045 0.15564-0.16303 0.97371-1.3591 2.8773-4.2067 1.0125-1.5146 1.4388-2.1399 2.015-2.9555 0.3642-0.5155 0.76297-1.0596 0.77083-1.0517 2e-3 0.0025-0.11568 0.18293-0.26254 0.40104-0.14685 0.21811-1.2542 1.8757-2.4608 3.6835s-2.3615 3.5371-2.5664 3.8428l-0.37255 0.55587z" stroke-width=".011048"/>
   <path d="m277.91 99.279c-2e-3 -0.0076-0.0101-0.0685-0.0182-0.13534-0.0405-0.33394-0.13821-0.81389-0.22054-1.0828-0.0129-0.04207-0.0125-0.04289 0.0287-0.05706 0.10715-0.03687 0.27399-0.1331 0.37993-0.21914 0.062-0.05036 0.17144-0.16234 0.21594-0.22098 0.0185-0.02431 0.42588-0.63274 0.9054-1.3521l0.87186-1.3079h0.0926l-0.14216 0.2113c-1.0647 1.5825-1.7706 2.6066-1.905 2.7635-0.0398 0.04643-0.0499 0.06502-0.0714 0.13053-0.0627 0.19147-0.10877 0.60898-0.12972 1.176-2e-3 0.05925-6e-3 0.10151-7e-3 0.09391z" stroke-width=".0055243"/>
  </g>
 </g>
</svg>
