<?xml version="1.0" encoding="UTF-8"?>
<!-- Created with Inkscape (http://www.inkscape.org/) -->
<svg width="76.459mm" height="16.899mm" version="1.1" viewBox="0 0 76.459 16.899" xmlns="http://www.w3.org/2000/svg">
 <g transform="translate(-17.827 -78.184)">
  <path d="m34.743 78.184-8.9396 8.9125-3.7323-3.7861-1.6369 1.6188 4.5416 4.6046 0.81848 0.81845 0.81845-0.81845 9.7577-9.7218zm-15.909 0.78248c-0.56606 0-1.0072 0.4412-1.0072 1.0073v14.102c0 0.56609 0.44119 1.0073 1.0072 1.0073h14.102c0.56609 0 1.0073-0.44116 1.0073-1.0073v-10.477l-1.1511 1.1511v9.1821h-13.814v-13.814h12.429l1.1511-1.1511zm18.562 3.4535v1.1511h17.267v-1.1511zm0 3.4534v1.1511h14.389v-1.1511zm0 3.4535v1.1511h15.541v-1.1511z" fill="#fd7b38" stroke-width=".94186"/>
  <g fill="#0e65d9">
   <rect x="56.161" y="91.035" width="38.126" height="1.2307" ry=".61536" stroke-width=".1651"/>
   <text x="57.166649" y="89.676552" font-size="3.175px" stroke-width=".26458" xml:space="preserve"><tspan x="57.166649" y="89.676552" font-family="'Bauhaus 93'" font-size="14.111px" stroke-width=".26458" style="font-variant-caps:normal;font-variant-east-asian:normal;font-variant-ligatures:normal;font-variant-numeric:normal">To Do</tspan></text>
   <text x="74.959023" y="93.463547" font-family="Dubai" font-size="3.175px" stroke-width=".26458" style="font-variant-caps:normal;font-variant-east-asian:normal;font-variant-ligatures:normal;font-variant-numeric:normal" xml:space="preserve"><tspan x="74.959023" y="93.463547" stroke-width=".26458">`</tspan></text>
  </g>
 </g>
</svg>
